<svg width="23" height="23" viewBox="0 0 23 23" fill="none" xmlns="http://www.w3.org/2000/svg">
<g id="smoke-free" clip-path="url(#clip0_105_2964)">
<path id="Vector" d="M17.25 14.2006L18.6875 15.6381V10.7812H17.25V14.2006Z" fill="#E07A3D"/>
<path id="Vector_2" d="M19.7656 10.7812H21.2031V16.1719H19.7656V10.7812Z" fill="#E07A3D"/>
<path id="Vector_3" d="M16.3258 5.12356C15.9203 5.59928 15.6807 6.19402 15.643 6.81797C15.6053 7.44192 15.7717 8.06119 16.117 8.58223L16.3851 8.98438H18.1128L17.3132 7.78496C17.1409 7.52497 17.0578 7.21597 17.0766 6.90462C17.0954 6.59328 17.215 6.29651 17.4174 6.05915C17.8357 5.57264 18.0785 4.95973 18.1068 4.31873C18.1352 3.67773 17.9474 3.04578 17.5737 2.52425L17.3108 2.15625H15.6677L15.5859 2.21465L16.4039 3.35971C16.5904 3.61995 16.684 3.93528 16.6699 4.25513C16.6557 4.57498 16.5346 4.8808 16.3258 5.12356Z" fill="#E07A3D"/>
<path id="Vector_4" d="M19.5602 5.12356C19.1547 5.59928 18.915 6.19402 18.8774 6.81797C18.8397 7.44192 19.0061 8.06119 19.3514 8.58223L19.6195 8.98438H21.3472L20.5476 7.78496C20.3752 7.52497 20.2922 7.21597 20.311 6.90462C20.3298 6.59328 20.4494 6.29651 20.6518 6.05915C21.0701 5.57264 21.3129 4.95973 21.3412 4.31873C21.3696 3.67773 21.1818 3.04578 20.8081 2.52425L20.5452 2.15625H18.9021L18.8203 2.21465L19.6382 3.35971C19.8247 3.61995 19.9184 3.93528 19.9043 4.25513C19.8901 4.57498 19.769 4.8808 19.5602 5.12356Z" fill="#E07A3D"/>
<path id="Vector_5" d="M11.7977 10.7812L1.7352 0.71875H0.71875V1.7352L9.7648 10.7812H0.71875V16.1719H15.1554L21.2648 22.2812H22.2812V21.2648L11.7977 10.7812ZM2.15625 14.7344V12.2188H11.2023L13.7179 14.7344H2.15625Z" fill="#E07A3D"/>
</g>
<defs>
<clipPath id="clip0_105_2964">
<rect width="23" height="23" fill="white"/>
</clipPath>
</defs>
</svg>
